<svg width="1200" height="630" viewBox="0 0 1200 630" xmlns="http://www.w3.org/2000/svg">
  <defs>
    <linearGradient id="grad" x1="0%" y1="0%" x2="100%" y2="100%">
      <stop offset="0%" style="stop-color:#ecfdf5;stop-opacity:1" />
      <stop offset="100%" style="stop-color:#d1fae5;stop-opacity:1" />
    </linearGradient>
    <filter id="shadow" x="-20%" y="-20%" width="140%" height="140%">
      <feDropShadow dx="0" dy="4" stdDeviation="8" flood-color="#000000" flood-opacity="0.1"/>
    </filter>
  </defs>
  
  <!-- Background -->
  <rect width="100%" height="100%" fill="url(#grad)" />
  
  <!-- Central Composition -->
  <g transform="translate(600, 315)">
    
    <!-- Icon Circle Background -->
    <circle r="120" fill="#16a34a" filter="url(#shadow)" cy="-60" />
    
    <!-- Leaf Icon (Scaled up from LeafIcon.tsx path) -->
    <g transform="translate(0, -60) scale(6)">
      <path 
        fill="#ffffff" 
        fill-rule="evenodd" 
        clip-rule="evenodd" 
        d="M11.25 4.5A6.75 6.75 0 004.5 11.25v2.643a.75.75 0 00.22 0.53l5.58 4.65a.75.75 0 00.999.002l5.58-4.65a.75.75 0 00.22-.531V11.25A6.75 6.75 0 0011.25 4.5zM8.221 16.31L4.5 12.966V11.25a6.75 6.75 0 0111.45-4.52.75.75 0 00-.333.918 4.5 4.5 0 00-8.312 4.148.75.75 0 00.588.616v3.85z" 
        transform="translate(-12, -12)" 
      />
    </g>

    <!-- Text -->
    <text 
      y="110" 
      font-family="system-ui, -apple-system, sans-serif" 
      font-size="80" 
      font-weight="800" 
      fill="#064e3b" 
      text-anchor="middle" 
      letter-spacing="-2"
    >PlantSnap</text>
    
    <text 
      y="160" 
      font-family="system-ui, -apple-system, sans-serif" 
      font-size="28" 
      font-weight="600" 
      fill="#15803d" 
      text-anchor="middle" 
      letter-spacing="4"
      style="text-transform: uppercase;"
    >AI Plant Identifier</text>
  </g>
</svg>